<?xml version="1.0" encoding="UTF-8" standalone="no"?>
<svg width="420px" height="400px" viewBox="0 0 420 400" version="1.1" xmlns="http://www.w3.org/2000/svg" xmlns:xlink="http://www.w3.org/1999/xlink" xmlns:sketch="http://www.bohemiancoding.com/sketch/ns">
    <defs></defs>
    <g id="Page-1" stroke="none" stroke-width="1" fill="none" fill-rule="evenodd" sketch:type="MSPage">
        <path d="M87.9946719,104 C83.5793365,104 80,107.577661 80,111.992405 L80,128.007595 C80,132.421678 83.5764964,136 87.9946719,136 L332.005328,136 C336.420663,136 340,132.422339 340,128.007595 L340,111.992405 C340,107.578322 336.423504,104 332.005328,104 L87.9946719,104 Z M87.9946719,184 C83.5793365,184 80,187.577661 80,191.992405 L80,208.007595 C80,212.421678 83.5764964,216 87.9946719,216 L332.005328,216 C336.420663,216 340,212.422339 340,208.007595 L340,191.992405 C340,187.578322 336.423504,184 332.005328,184 L87.9946719,184 Z M87.9946719,264 C83.5793365,264 80,267.577661 80,271.992405 L80,288.007595 C80,292.421678 83.5764964,296 87.9946719,296 L332.005328,296 C336.420663,296 340,292.422339 340,288.007595 L340,271.992405 C340,267.578322 336.423504,264 332.005328,264 L87.9946719,264 Z" id="Rectangle-2" fill="#FFFFFF" sketch:type="MSShapeGroup"></path>
    </g>
</svg>
