<?xml version="1.0" encoding="UTF-8" standalone="no"?>
<svg width="357px" height="433px" viewBox="0 0 357 433" version="1.1" xmlns="http://www.w3.org/2000/svg" xmlns:xlink="http://www.w3.org/1999/xlink" xmlns:sketch="http://www.bohemiancoding.com/sketch/ns">
    <defs></defs>
    <g id="Page-1" stroke="none" stroke-width="1" fill="none" fill-rule="evenodd" sketch:type="MSPage">
        <path d="M1.354,62.958 C13.199,5.326 52.817,7.183 58.409,7.231 C62.874,7.279 74.116,8.625 81.469,10.861 C87.669,12.74 127.033,29.631 149.53,24.108 C163.616,21.356 178.785,4.325 178.47,4.644 C178.47,4.644 163.93,44.974 147.935,56.784 C141.757,61.249 128.231,72.91 101.838,74.413 C82.413,75.514 65.116,67.96 54.198,63.831 C54.346,63.879 39.138,57.243 24.843,61.157 C14.068,64.098 1.206,80.564 0,81.875 L0,77.943 C0,77.943 0.455,66.968 1.354,62.958 L1.354,62.958 Z M117.509,106.106 C116.775,110.073 116.303,126.483 116.303,123.136 L116.303,208.602 L116.303,294.078 C116.303,294.401 119.396,317.955 97.018,336.649 C67.754,361.089 47.12,369.937 46.495,370.64 C46.587,370.539 58.409,364.217 58.409,346.117 L58.409,248.596 C58.409,248.596 44.743,248.517 43.992,248.557 C14.318,247.408 20.321,265.321 20.321,265.321 C20.321,265.321 13.872,263.381 7.795,250.405 C1.268,236.481 1.442,212.893 6.488,200.673 C13.387,183.962 27.223,184.049 38.57,184.049 C43.52,184.049 58.658,183.621 58.654,183.394 C58.409,135.719 58.409,137.668 58.409,130.219 C58.409,107.303 87.511,97.124 88.913,96.582 L124.739,81.875 C124.434,82.854 119.873,92.658 117.509,106.106 L117.509,106.106 Z M259.117,0 C309.907,23.627 308.482,84.169 308.53,84.488 C310.654,98.626 306.285,134.487 289.394,161.68 C286.45,166.433 271.119,186.745 247.063,205.003 C250.592,202.321 264.373,215.987 266.951,218.756 C281.814,234.756 291.509,263.399 296.476,279.669 C296.873,280.953 312.943,343.36 314.197,346.288 C319.462,358.52 321.558,362.728 329.982,366.035 C337.628,369.032 344.042,366.971 356.738,360.229 C356.738,360.229 339.218,388.352 334.342,397.352 C328.841,407.488 316.966,429.652 316.966,429.652 C316.966,429.652 296.729,432.881 274.783,415.244 C260.824,404.024 253.738,380.981 250.229,369.758 C249.482,367.372 228.598,394.426 228.598,394.426 L200.662,432.93 C200.662,432.93 163.643,411.412 147.032,406.895 C120.989,399.004 94.74,401.791 79.405,405.763 C56.306,411.748 25.308,431.619 25.308,431.619 C25.308,431.619 29.983,421.88 34.461,416.306 C51.474,390.905 86.675,355.834 127.145,345.493 C136.844,343.501 146.308,341.631 162.701,342.544 C187.01,343.898 231.443,361.773 229.665,361.126 C232.605,362.191 235.615,363.179 238.626,364.158 L245.009,358.618 C244.712,358.295 242.772,352.252 240.439,342.544 C238.954,336.366 237.578,325.685 237.499,324.863 C237.43,324.042 231.4,287.53 230.491,283.68 C229.097,275.074 222.881,253.325 216.48,243.398 C214.675,239.798 209.201,235.018 205.635,233.245 C203.53,232.349 201.271,231.855 198.859,231.855 L198.253,250.847 L198.305,279.136 C198.305,282.322 197.558,294.651 188.235,302.213 C174.163,317.357 151.951,327.588 146.358,329.773 C135.728,334.75 122.036,335.991 120.992,336.738 C137.03,325.199 136.572,312.691 136.869,308.815 C136.943,307.836 137.393,209.59 137.393,209.59 L137.393,111.34 C137.393,111.017 138.183,91.147 144.025,81.215 C148.407,73.757 152.509,69.38 160.291,64.189 L209.705,31.439 L259.117,0 L259.117,0 Z M198.76,67.392 L198.253,142.456 C198.253,142.456 198.253,206.637 198.76,216.982 C199.267,227.327 252.468,202.66 258.589,134.919 C259.742,126.871 259.93,128.457 259.183,115.529 C258.436,106.184 257.693,53.861 227.106,41.133 C227.105,41.134 203.552,52.935 198.76,67.392 L198.76,67.392 Z" id="Shape" fill="#FFFFFF" sketch:type="MSShapeGroup"></path>
    </g>
</svg>
